<?xml version="1.0" encoding="UTF-8" standalone="no"?>
<svg
   height="34"
   viewBox="0 -960 1360 1360"
   width="34"
   fill="#ffffff"
   version="1.1"
   id="svg1"
   sodipodi:docname="keyboard_down.svg"
   inkscape:version="1.4.2 (ebf0e940, 2025-05-08)"
   xmlns:inkscape="http://www.inkscape.org/namespaces/inkscape"
   xmlns:sodipodi="http://sodipodi.sourceforge.net/DTD/sodipodi-0.dtd"
   xmlns="http://www.w3.org/2000/svg"
   xmlns:svg="http://www.w3.org/2000/svg">
  <defs
     id="defs1" />
  <sodipodi:namedview
     id="namedview1"
     pagecolor="#666666"
     bordercolor="#939393"
     borderopacity="0.74509804"
     inkscape:showpageshadow="2"
     inkscape:pageopacity="0.0"
     inkscape:pagecheckerboard="0"
     inkscape:deskcolor="#d1d1d1"
     inkscape:zoom="3.0641294"
     inkscape:cx="-25.94538"
     inkscape:cy="28.393057"
     inkscape:window-width="1104"
     inkscape:window-height="747"
     inkscape:window-x="0"
     inkscape:window-y="31"
     inkscape:window-maximized="0"
     inkscape:current-layer="svg1" />
  <path
     d="m 577.73693,21.922743 q -33,0 -56.5,-23.4999997 -23.5,-23.5000003 -23.5,-56.5000003 V -458.07726 q 0,-33 23.5,-56.5 23.5,-23.5 56.5,-23.5 h 639.99997 q 33,0 56.5,23.5 23.5,23.5 23.5,56.5 v 400.000003 q 0,33 -23.5,56.5000003 -23.5,23.4999997 -56.5,23.4999997 z m 0,-80 H 1217.7369 V -458.07726 H 577.73693 Z m 160,-40 H 1057.7369 V -178.07726 H 737.73693 Z m -120,-120.000003 h 80 v -80 h -80 z m 120,0 h 80 v -80 h -80 z m 120,0 h 80 v -80 h -80 z m 120,0 h 79.99997 v -80 h -79.99997 z m 119.99997,0 h 80 v -80 h -80 z m -479.99997,-120 h 80 v -80 h -80 z m 120,0 h 80 v -80 h -80 z m 120,0 h 80 v -80 h -80 z m 120,0 h 79.99997 v -80 h -79.99997 z m 119.99997,0 h 80 v -80 h -80 z M 577.73693,-58.077257 V -458.07726 Z"
     id="path1" />
  <path
     d="m 252.37363,-137.73693 -200.000005,-200 H 452.37363 Z"
     id="path1-2" />
</svg>
