<?xml version="1.0" encoding="UTF-8" standalone="no"?>
<svg
   height="24px"
   viewBox="0 -960 960 960"
   width="24px"
   fill="#FFFFFF"
   version="1.1"
   id="svg1"
   sodipodi:docname="tv-x.svg"
   inkscape:version="1.4.2 (ebf0e940, 2025-05-08)"
   xmlns:inkscape="http://www.inkscape.org/namespaces/inkscape"
   xmlns:sodipodi="http://sodipodi.sourceforge.net/DTD/sodipodi-0.dtd"
   xmlns="http://www.w3.org/2000/svg"
   xmlns:svg="http://www.w3.org/2000/svg">
  <defs
     id="defs1" />
  <sodipodi:namedview
     id="namedview1"
     pagecolor="#6b6b6b"
     bordercolor="#ffffff"
     borderopacity="0"
     inkscape:showpageshadow="2"
     inkscape:pageopacity="0.0"
     inkscape:pagecheckerboard="0"
     inkscape:deskcolor="#d1d1d1"
     inkscape:zoom="17.333333"
     inkscape:cx="13.932692"
     inkscape:cy="12.375"
     inkscape:window-width="1176"
     inkscape:window-height="778"
     inkscape:window-x="0"
     inkscape:window-y="31"
     inkscape:window-maximized="0"
     inkscape:current-layer="svg1" />
  <path
     d="M320-120v-80H160q-33 0-56.5-23.5T80-280v-480q0-33 23.5-56.5T160-840h640q33 0 56.5 23.5T880-760v480q0 33-23.5 56.5T800-200H640v80H320ZM160-280h640v-480H160v480Zm0 0v-480 480Z"
     id="path1" />
  <path
     d="m 340.61539,-347.6923 -35.23077,-35.23076 140.92307,-140.92309 -140.92307,-140.92307 35.23077,-35.23077 140.92307,140.92307 140.92309,-140.92307 35.23076,35.23077 -140.92308,140.92307 140.92308,140.92309 -35.23076,35.23076 -140.92309,-140.92308 z"
     id="path1-8"
     style="stroke-width:0.629121" />
</svg>
